# xmcd
#
# Track frame offsets: 
#        150
#        6476
#        23284
#        42559
#        59009
#        80907
#        98574
#        116854
#        135005
#        158177
#        180210
#        195804
#        221239
#        236566
#        251074
#        265753
#        283086
#
# Disc length: 4178 seconds
#
# Revision: 4
# Processed by: cddbd v1.5.2PL0 Copyright (c) Steve Scherf et al.
# Submitted via: ExactAudioCopy v0.99pb5
#
DISCID=e7105011
DTITLE=HYBRYDY - Jazz w Hybrydach Wspomnienie 1957-1964
DYEAR=2002
DGENRE=Jazz
TTITLE0=Swanne River - Sept J.Zabiegliskiego Wprowadzenie - R.Waschko 
TTITLE0=L.Tyrmand
TTITLE1=Clarinet Marmalade - Modern Dixielanders
TTITLE2=Bez Tytu³u - New Orleans Stompers
TTITLE3=Starzyk - Zespó³ Zbigniewa Namys³owskiego
TTITLE4=Bille's Bounce - Zespó³ Wróblewskiegi i Kurylewicza
TTITLE5=Trallalla - J.Korrossy(R0)/B.Rosengren(S)
TTITLE6=W barze - Swingtet Jerzego Zabiegaliskiego
TTITLE7=Nice Work If You Can Get It - Swingtet Jerzego Zabiegaliskiego
TTITLE8=Five Degress East - I.Sulieman(USA)/A.Trzaskowski Orkiestra
TTITLE9=Jubilation - Jazz Rockers
TTITLE10=Ballad For Bernt - Komedia Trio and B. Rosengren
TTITLE11=nineteenger's Riff - Jazz Outsiders
TTITLE12=Love Is Like Whisky - M.Tarnowski/New Orlean Stompers
TTITLE13=Helsinki Stomp - Jerzy Matuszkiewicz Oktet
TTITLE14=Ulice wielkich miast - Ula Dudziak
TTITLE15=Blues Schmues - Zbyszek Namys³owski Quartet
TTITLE16=Round About Midnight - Zbyszek Namys³owski Quartet
EXTD=YEAR: 2002
EXTT0=
EXTT1=
EXTT2=
EXTT3=
EXTT4=
EXTT5=
EXTT6=
EXTT7=
EXTT8=
EXTT9=
EXTT10=
EXTT11=
EXTT12=
EXTT13=
EXTT14=
EXTT15=
EXTT16=
PLAYORDER=
